HIERARCHY
ROOT Hips
{
	OFFSET 0.000000 0.000000 0.000000
	CHANNELS 6 Xposition Yposition Zposition Xrotation Yrotation Zrotation
	JOINT LeftUpLeg_virtual
	{
		OFFSET 0.000000 0.000000 0.000000
		CHANNELS 3 Xrotation Yrotation Zrotation
		JOINT LeftUpLeg
		{
			OFFSET 11.394100 -6.187798 -0.413800
			CHANNELS 3 Xrotation Yrotation Zrotation
			JOINT LeftLeg
			{
				OFFSET 0.430247 -32.302673 3.732800
				CHANNELS 3 Xrotation Yrotation Zrotation
				JOINT LeftFoot
				{
					OFFSET -0.430247 -48.264931 -6.423300
					CHANNELS 3 Xrotation Yrotation Zrotation
					JOINT LeftToeBase
					{
						OFFSET 4.230900 -16.068199 23.438400
						CHANNELS 3 Xrotation Yrotation Zrotation
						JOINT LeftToe_End
						{
							OFFSET 4.510700 0.695400 19.974600
							CHANNELS 3 Xrotation Yrotation Zrotation
							End Site
							{
								OFFSET 0 0 0
							}
						}
					}
				}
			}
		}
	}
	JOINT RightUpLeg_virtual
	{
		OFFSET 0.000000 0.000000 0.000000
		CHANNELS 3 Xrotation Yrotation Zrotation
		JOINT RightUpLeg
		{
			OFFSET -11.333700 -6.187798 -0.413800
			CHANNELS 3 Xrotation Yrotation Zrotation
			JOINT RightLeg
			{
				OFFSET -0.430392 -32.302628 3.733000
				CHANNELS 3 Xrotation Yrotation Zrotation
				JOINT RightFoot
				{
					OFFSET 0.430392 -48.264973 -6.423500
					CHANNELS 3 Xrotation Yrotation Zrotation
					JOINT RightToeBase
					{
						OFFSET -4.230900 -16.068199 23.438400
						CHANNELS 3 Xrotation Yrotation Zrotation
						JOINT RightToe_End
						{
							OFFSET -4.510700 0.695400 19.974600
							CHANNELS 3 Xrotation Yrotation Zrotation
							End Site
							{
								OFFSET 0 0 0
							}
						}
					}
				}
			}
		}
	}
	JOINT Spine_virtual
	{
		OFFSET 0.000000 0.000000 0.000000
		CHANNELS 3 Xrotation Yrotation Zrotation
		JOINT Spine
		{
			OFFSET -0.002400 12.777504 0.315300
			CHANNELS 3 Xrotation Yrotation Zrotation
			JOINT Spine1
			{
				OFFSET -0.002067 5.816869 0.032633
				CHANNELS 3 Xrotation Yrotation Zrotation
				JOINT Spine1_split
				{
					OFFSET -0.002067 5.816869 0.032633
					CHANNELS 3 Xrotation Yrotation Zrotation
					JOINT Spine2
					{
						OFFSET -0.002067 5.816869 0.032633
						CHANNELS 3 Xrotation Yrotation Zrotation
						JOINT Neck_virtual
						{
							OFFSET 0.000000 0.000000 0.000000
							CHANNELS 3 Xrotation Yrotation Zrotation
							JOINT Neck
							{
								OFFSET -0.003700 21.199493 -0.826900
								CHANNELS 3 Xrotation Yrotation Zrotation
								JOINT Head
								{
									OFFSET 0.000000 20.442200 4.834800
									CHANNELS 3 Xrotation Yrotation Zrotation
									JOINT HeadTop_End
									{
										OFFSET 0.000000 34.668396 4.968400
										CHANNELS 3 Xrotation Yrotation Zrotation
										End Site
										{
											OFFSET 0 0 0
										}
									}
								}
							}
						}
						JOINT LeftShoulder_virtual
						{
							OFFSET 0.000000 0.000000 0.000000
							CHANNELS 3 Xrotation Yrotation Zrotation
							JOINT LeftShoulder
							{
								OFFSET 3.288150 8.794197 -1.372250
								CHANNELS 3 Xrotation Yrotation Zrotation
								JOINT LeftShoulder_split
								{
									OFFSET 3.288150 8.794197 -1.372250
									CHANNELS 3 Xrotation Yrotation Zrotation
									JOINT LeftArm
									{
										OFFSET 11.953299 -2.279007 -0.146200
										CHANNELS 3 Xrotation Yrotation Zrotation
										JOINT LeftForeArm
										{
											OFFSET 18.448900 0.000000 0.000000
											CHANNELS 3 Xrotation Yrotation Zrotation
											JOINT LeftHand
											{
												OFFSET 29.527798 0.000000 0.000000
												CHANNELS 3 Xrotation Yrotation Zrotation
												End Site
												{
													OFFSET 0 0 0
												}
											}
										}
									}
								}
							}
						}
						JOINT RightShoulder_virtual
						{
							OFFSET 0.000000 0.000000 0.000000
							CHANNELS 3 Xrotation Yrotation Zrotation
							JOINT RightShoulder
							{
								OFFSET -3.249400 8.794197 -1.372250
								CHANNELS 3 Xrotation Yrotation Zrotation
								JOINT RightShoulder_split
								{
									OFFSET -3.249400 8.794197 -1.372250
									CHANNELS 3 Xrotation Yrotation Zrotation
									JOINT RightArm
									{
										OFFSET -11.953299 -2.279007 -0.146200
										CHANNELS 3 Xrotation Yrotation Zrotation
										JOINT RightForeArm
										{
											OFFSET -18.448900 0.000000 0.000000
											CHANNELS 3 Xrotation Yrotation Zrotation
											JOINT RightHand
											{
												OFFSET -29.527802 0.000000 0.000000
												CHANNELS 3 Xrotation Yrotation Zrotation
												End Site
												{
													OFFSET 0 0 0
												}
											}
										}
									}
								}
							}
						}
					}
				}
			}
		}
	}
}
MOTION
Frames: 10
Frame Time: 0.03333333
3.089957 92.738724 -1.742542 0.000000 0.000000 0.000000 -6.069601 -49.047510 -5.680062 -39.486485 -3.637641 12.533661 30.887505 -5.222722 1.284938 11.448029 -8.568684 -7.848849 -4.699447 -4.019020 1.294056 0.000000 0.000000 0.000000 -5.212120 -45.085259 -5.463640 -7.149252 -19.049119 -10.652400 39.696329 -2.754117 -3.541249 -16.779229 -6.775466 17.464509 -0.777881 -0.660363 0.045894 0.000000 0.000000 0.000000 -9.886815 -44.192844 -8.760418 6.898739 5.197543 -0.736033 12.489099 9.506444 -3.773476 1.077298 2.807405 -0.135840 0.000000 0.000000 0.000000 10.752812 8.636289 -4.196823 -5.917975 -3.510411 3.494861 -13.100778 21.671897 1.090672 0.000000 0.000000 0.000000 11.445684 9.146514 -3.937623 2.833183 -2.179279 -4.497694 -2.235366 -0.766623 -4.006164 -15.771504 -1.435734 -58.006775 18.176744 -54.032161 8.339224 0.000000 0.000000 0.000000 11.876686 9.196798 -4.025857 1.059307 10.569814 11.409040 -0.160652 2.847200 2.483118 4.125417 -19.873134 62.822345 -1.104106 47.002288 3.303896 0.000000 0.000000 0.000000 
2.953524 92.449661 -1.912895 0.000000 0.000000 0.000000 -3.997757 -47.264745 -4.554467 -40.592176 -3.751721 12.732034 30.717970 -4.411466 1.150740 11.812913 -8.512449 -6.800433 -4.059274 -3.939608 0.830143 0.000000 0.000000 0.000000 -4.255581 -43.429683 -5.060850 -8.120486 -18.791645 -10.052930 39.733615 -1.990920 -4.703168 -16.868288 -6.274583 19.152624 -0.621811 -0.812627 0.278620 0.000000 0.000000 0.000000 -7.694409 -43.368204 -7.596630 6.861751 5.356622 -0.664818 12.512818 9.539748 -3.823543 0.255855 1.409346 0.212476 0.000000 0.000000 0.000000 10.474385 8.716383 -4.048900 -5.909326 -3.412260 3.104191 -12.672701 21.772341 1.270032 0.000000 0.000000 0.000000 11.531964 9.105828 -4.046077 2.863168 -2.257140 -4.800662 -2.075848 -0.361206 -3.610111 -12.579459 -0.959347 -57.101816 19.711938 -56.042563 8.991533 0.000000 0.000000 0.000000 11.886106 9.383322 -3.806413 1.283423 10.757297 11.141088 -0.146574 3.737244 1.049063 3.381125 -20.106812 61.736659 -0.060345 47.877048 2.185175 0.000000 0.000000 0.000000 
2.520437 91.540833 -2.559620 0.000000 0.000000 0.000000 -1.007012 -43.970552 -3.268681 -44.902063 -3.623855 13.732551 31.338930 -3.388011 1.642280 13.740133 -9.264544 -5.680722 -4.075740 -3.899700 0.366673 0.000000 0.000000 0.000000 -1.797258 -39.688829 -4.267910 -10.214559 -18.582525 -8.950510 40.862317 -0.732266 -6.593313 -16.841908 -5.056772 20.608931 -0.885955 -0.756061 0.013554 0.000000 0.000000 0.000000 -4.602850 -40.710574 -6.327372 7.177945 5.243050 -0.841251 12.597675 9.349431 -3.572793 0.074976 0.074385 0.760537 0.000000 0.000000 0.000000 10.272614 8.615824 -3.541353 -5.916754 -3.530088 2.425039 -11.930966 21.668140 1.277720 0.000000 0.000000 0.000000 11.683121 8.871998 -3.866749 2.923749 -2.711532 -5.033221 -2.288479 0.002596 -2.821367 -6.878105 -0.318016 -55.947982 19.733139 -60.939993 8.183562 0.000000 0.000000 0.000000 11.948936 9.398966 -3.291609 1.610227 10.570128 10.453762 -0.032621 3.819933 0.378704 3.378101 -18.497667 60.540932 3.039216 49.521132 -1.047028 0.000000 0.000000 0.000000 
1.971657 90.140076 -3.722301 0.000000 0.000000 0.000000 2.553504 -39.596960 -2.234441 -52.257842 -3.345470 15.433349 32.687783 -2.291138 2.538109 16.879301 -10.947905 -4.519870 -4.839652 -3.879071 0.539824 0.000000 0.000000 0.000000 1.630561 -34.768101 -3.551502 -13.474734 -18.565581 -7.430809 43.527508 0.711956 -9.074039 -17.122946 -3.491728 21.518706 -1.716639 -0.536826 -0.576142 0.000000 0.000000 0.000000 -0.787336 -36.903072 -5.204429 7.679041 4.918143 -1.222423 12.703030 8.974403 -3.090226 0.446820 -1.009083 0.884616 0.000000 0.000000 0.000000 10.246328 8.324899 -2.810610 -6.124760 -3.748275 1.605998 -11.045726 21.499783 1.026585 0.000000 0.000000 0.000000 11.843701 8.521840 -3.450905 2.974386 -3.349003 -5.034667 -2.431994 -0.170775 -1.649260 0.207045 0.285348 -54.807890 18.329335 -67.769048 6.168080 0.000000 0.000000 0.000000 12.096319 9.233439 -2.625282 1.921412 9.999766 9.506279 0.474950 3.749005 0.439180 3.929123 -15.464014 59.630864 7.978621 51.710129 -6.212794 0.000000 0.000000 0.000000 
1.317103 88.345078 -5.052811 0.000000 0.000000 0.000000 6.433253 -34.706534 -1.674577 -61.570037 -3.159268 17.442903 35.175502 -1.037902 3.623114 20.526231 -13.014569 -2.976697 -5.659199 -3.759170 1.276809 0.000000 0.000000 0.000000 5.553043 -29.599178 -3.092770 -17.832328 -19.015655 -5.697319 48.637979 1.941757 -11.982609 -17.810389 -1.947782 21.786190 -2.833848 -0.203591 -1.319451 0.000000 0.000000 0.000000 3.326271 -32.784737 -4.474500 8.218289 4.522847 -1.704166 12.810267 8.467344 -2.509855 1.169246 -1.624165 0.776692 0.000000 0.000000 0.000000 10.494082 7.879355 -2.056884 -6.823448 -3.926721 0.776158 -10.271110 21.431356 0.618164 0.000000 0.000000 0.000000 12.041341 8.107915 -2.936974 3.027215 -3.908562 -4.710711 -2.043512 -1.009611 -0.560525 7.103459 0.574622 -54.268626 15.620675 -74.785039 3.002971 0.000000 0.000000 0.000000 12.376335 8.881281 -1.979303 2.162267 8.920767 8.364977 1.312554 3.702533 0.740855 4.685888 -11.588922 59.343819 14.305948 54.055326 -12.914094 0.000000 0.000000 0.000000 
0.663715 86.112556 -6.291729 0.000000 0.000000 0.000000 10.446117 -29.851735 -1.631471 -71.920061 -3.029160 19.224370 38.464142 0.725187 4.558703 23.477759 -14.774410 -0.835724 -5.506772 -3.390516 2.107351 0.000000 0.000000 0.000000 9.705325 -24.869433 -2.920653 -23.586924 -20.085571 -4.115373 56.800369 2.418750 -15.006578 -18.660251 -0.660683 21.653520 -3.941510 0.136367 -2.081673 0.000000 0.000000 0.000000 7.694994 -29.214013 -3.984969 8.652481 4.280710 -2.145263 12.914618 7.901463 -1.943569 1.967742 -1.377499 0.664165 0.000000 0.000000 0.000000 10.990275 7.387432 -1.432932 -8.325946 -4.080903 -0.025787 -9.790162 21.581591 0.143650 0.000000 0.000000 0.000000 12.266749 7.690125 -2.371572 3.069441 -4.037015 -3.939233 -1.583232 -2.085403 0.282179 12.716307 0.067300 -54.763439 12.572815 -79.815746 -0.335029 0.000000 0.000000 0.000000 12.789400 8.405493 -1.490698 2.361063 7.195845 6.982187 2.355220 3.453335 1.190370 4.799780 -7.873355 59.736548 20.956431 55.660236 -20.142597 0.000000 0.000000 0.000000 
0.179698 83.299774 -7.691429 0.000000 0.000000 0.000000 14.521631 -25.019301 -2.016513 -82.738910 -2.863830 20.310018 42.171166 3.046717 5.212054 24.906365 -16.232447 1.284429 -4.363567 -2.767558 2.316085 0.000000 0.000000 0.000000 13.585288 -20.962879 -3.095346 -30.893287 -21.614146 -2.927880 67.444327 1.813624 -17.658715 -19.443175 -0.076314 21.683170 -5.173193 0.281316 -2.616282 0.000000 0.000000 0.000000 12.107275 -26.241788 -3.667571 8.983494 4.235987 -2.529142 13.025924 7.349279 -1.435690 2.322050 -0.575605 0.725173 0.000000 0.000000 0.000000 11.629888 6.877312 -0.966249 -10.875603 -4.175182 -0.719490 -9.718913 21.820416 -0.138760 0.000000 0.000000 0.000000 12.547854 7.289498 -1.828646 3.106738 -3.507529 -2.698451 -1.640340 -2.840770 0.919244 15.953635 -1.434018 -56.408879 12.856844 -81.840358 -0.005050 0.000000 0.000000 0.000000 13.348755 7.868918 -1.156630 2.505184 4.786731 5.159028 3.507061 3.537474 1.396794 3.409938 -5.014750 60.967839 26.326631 55.896574 -26.434010 0.000000 0.000000 0.000000 
-0.092859 79.902206 -8.849918 0.000000 0.000000 0.000000 18.452654 -20.637085 -2.634472 -93.510371 -3.098742 20.177859 46.540270 5.109755 5.708955 25.817838 -17.846530 2.321958 -3.746064 -2.022207 1.825397 0.000000 0.000000 0.000000 17.118105 -17.528671 -3.488578 -39.218444 -23.163420 -2.262876 79.000898 0.147677 -19.489096 -20.587614 -0.428836 21.591370 -5.830862 0.184221 -2.724557 0.000000 0.000000 0.000000 16.307630 -23.732346 -3.416637 9.216803 4.397170 -2.885023 13.210540 6.793933 -0.966472 2.069321 0.140590 0.668895 0.000000 0.000000 0.000000 12.302958 6.424929 -0.639067 -14.537831 -4.190976 -1.333201 -10.176375 22.077507 0.032891 0.000000 0.000000 0.000000 13.024777 6.909782 -1.322068 3.160622 -2.227388 -1.018180 -2.155800 -2.588257 0.850589 16.047220 -3.722690 -59.355027 16.744689 -80.477442 4.491485 0.000000 0.000000 0.000000 14.027621 7.322998 -0.923129 2.633859 1.834202 2.751717 4.526527 3.617493 1.475984 0.696260 -2.542274 62.999520 28.696582 54.573942 -30.026475 0.000000 0.000000 0.000000 
-0.197060 75.970459 -9.772060 0.000000 0.000000 0.000000 22.069757 -17.147386 -3.160890 -103.779513 -3.801002 18.654474 51.617232 6.510690 6.227760 27.475355 -19.663288 2.342644 -4.267808 -1.344810 1.136586 0.000000 0.000000 0.000000 20.280438 -14.425404 -4.021913 -47.719605 -24.369437 -2.063393 88.988834 -2.137486 -20.077346 -22.290421 -1.649729 20.800282 -5.105178 -0.115117 -1.989542 0.000000 0.000000 0.000000 20.341867 -21.711131 -3.119244 9.336125 4.654018 -3.276966 13.557558 6.278699 -0.518610 1.042142 0.563819 0.745638 0.000000 0.000000 0.000000 12.957665 6.066275 -0.363409 -18.996356 -4.245591 -1.876352 -11.079391 22.084676 0.708820 0.000000 0.000000 0.000000 13.711389 6.600125 -0.827910 3.209030 -0.380990 0.846733 -2.753522 -1.731459 0.266727 13.382910 -6.249872 -63.516914 18.776603 -76.397483 8.017797 0.000000 0.000000 0.000000 14.764745 6.863724 -0.713646 2.778957 -1.311065 -0.163045 5.452679 3.603088 1.683198 -2.978240 -0.059664 65.610401 27.820694 52.286731 -30.485894 0.000000 0.000000 0.000000 
-0.171979 71.929138 -9.909939 0.000000 0.000000 0.000000 25.283033 -14.722264 -3.334578 -112.689160 -4.659028 16.065602 56.901896 7.323852 6.793195 30.154544 -21.191205 1.931831 -5.292906 -0.854961 0.604590 0.000000 0.000000 0.000000 23.300113 -12.143849 -4.265844 -55.242966 -25.069506 -2.247631 95.946850 -4.445441 -19.650505 -24.161666 -3.427204 19.366846 -3.237091 -0.431617 -0.116834 0.000000 0.000000 0.000000 23.863049 -20.032818 -2.877354 9.384279 4.738670 -3.739413 14.040863 5.831710 -0.056627 0.029027 0.772600 0.789649 0.000000 0.000000 0.000000 13.593716 5.759637 -0.066046 -23.548249 -4.443028 -2.355346 -12.224785 21.867529 1.803612 0.000000 0.000000 0.000000 14.536480 6.340278 -0.349604 3.223291 1.706514 2.594190 -2.932679 -0.760415 -0.328344 8.732277 -9.206316 -68.271245 19.048341 -71.843147 10.577763 0.000000 0.000000 0.000000 15.478752 6.481552 -0.480860 2.883689 -4.257393 -3.485408 6.355169 3.770117 2.125559 -7.313171 3.469223 68.328960 25.383088 50.858371 -29.298127 0.000000 0.000000 0.000000 
